<svg width="18" height="18" viewBox="0 0 18 18" fill="none" xmlns="http://www.w3.org/2000/svg">
<path fill-rule="evenodd" clip-rule="evenodd" d="M11.2871 3.37333V3.13495H11.0487H8.84689H8.60851V3.37333V5.6093V5.84769H8.84689H9.63884V6.05623H10.8104V7.22043H1.3607H1.12231V7.45882V10.1521V10.3905H1.3607H2.03669V10.5282H10.8104V12.0788H8.84689H8.60851V12.3172V14.5532V14.7915H8.84689H9.63884V15.0003H11.8748V12.7643H11.2871V12.5554H11.8748V12.7643H14.1107V10.5283H13.489V10.5282H16.3469V8.29219H15.6044V7.45882V7.22043H15.366H14.1107V6.05639H13.489V5.60913V5.37075H13.2506H11.8748V3.82026H11.2871V3.37333ZM11.0487 3.82026V3.61172V3.37333H10.8103H9.08527H8.84689V3.61172V5.37092V5.6093H9.08527H9.63884V3.82026H11.0487ZM11.0488 6.05623H11.8748V5.60913H13.0122H13.2506V5.84752V6.05639H11.8748V8.29219H2.03669V10.1521H1.59908H1.3607V9.91376V7.6972V7.45882H1.59908H10.8104H11.0488V7.22043V6.05623ZM11.0488 10.5282V12.0786V12.0788V12.317H11.2871H11.2872H11.8748V10.5283H13.2506V10.5282H11.0488ZM15.366 8.29219V7.6972V7.45882H15.1276H14.1107V8.29219H15.366ZM11.0487 12.7643V12.5556V12.5554V12.3172H10.8104H10.8103H9.08527H8.84689V12.5556V14.3148V14.5532H9.08527H9.63884V12.7643H11.0487Z" fill="#00FFB1"/>
</svg>
