<svg width="25" height="24" viewBox="0 0 25 24" fill="none" xmlns="http://www.w3.org/2000/svg">
<path d="M12.8965 1.9989C7.37351 1.9989 2.89651 6.47589 2.89651 11.9989C2.89651 17.5219 7.37351 21.9989 12.8965 21.9989C17.9765 21.9989 22.2405 18.1909 22.8345 13.1869C22.8985 12.6379 22.5075 12.1269 21.9585 12.0609C21.4105 11.9969 20.8985 12.3879 20.8345 12.9369C20.3595 16.9369 16.9605 19.9989 12.8965 19.9989C8.47851 19.9989 4.89651 16.4169 4.89651 11.9989C4.89651 7.58089 8.47851 3.9989 12.8965 3.9989C13.8195 3.9989 14.7335 4.16589 15.5845 4.46789C16.1045 4.65189 16.6495 4.36289 16.8345 3.84289C17.0185 3.32189 16.7605 2.74591 16.2405 2.56091C15.1765 2.18391 14.0475 1.9989 12.8965 1.9989ZM21.8965 3.9989C21.6405 3.9989 21.3725 4.0889 21.1775 4.2799L12.4585 12.8739C12.2015 13.1269 11.9425 13.0779 11.7405 12.7799L10.7405 11.3109C10.4345 10.8599 9.79251 10.7289 9.33451 11.0299C8.87551 11.3309 8.74652 11.9539 9.05252 12.4049L10.0525 13.8739C10.9535 15.2029 12.7165 15.3789 13.8655 14.2489L22.6155 5.68688C23.0055 5.30288 23.0055 4.6639 22.6155 4.2799C22.4205 4.0879 22.1525 3.9989 21.8965 3.9989Z" fill="#00FFB1"/>
</svg>
