<svg width="126" height="126" viewBox="0 0 126 126" fill="none" xmlns="http://www.w3.org/2000/svg">
<g filter="url(#filter0_d_5238_970)">
<path d="M63 0L75.2163 13.4083L92.5 7.9045L96.3754 25.6246L114.095 29.5L108.592 46.7837L122 59L108.592 71.2163L114.095 88.5L96.3754 92.3754L92.5 110.095L75.2163 104.592L63 118L50.7837 104.592L33.5 110.095L29.6246 92.3754L11.9045 88.5L17.4083 71.2163L4 59L17.4083 46.7837L11.9045 29.5L29.6246 25.6246L33.5 7.9045L50.7837 13.4083L63 0Z" fill="url(#paint0_linear_5238_970)"/>
<path d="M77.1427 48.6H43.7053V50.3053H42V79.2947H43.7053V81H80.5532V51.3284H78.848V49.9642H77.1427V48.6Z" fill="#060C0B"/>
<path d="M77.1427 48.6V47.4H78.3427V48.6H77.1427ZM43.7053 48.6H42.5053V47.4H43.7053V48.6ZM43.7053 81V82.2H42.5053V81H43.7053ZM80.5532 81H81.7532V82.2H80.5532V81ZM42 79.2947V80.4947H40.8V79.2947H42ZM42 50.3053H40.8V49.1053H42V50.3053ZM43.7053 50.3053H44.9053V51.5053H43.7053V50.3053ZM43.7053 79.2947V78.0947H44.9053V79.2947H43.7053ZM80.5532 51.3284V50.1284H81.7532V51.3284H80.5532ZM78.848 51.3284V52.5284H77.648V51.3284H78.848ZM78.848 49.9642V48.7642H80.048V49.9642H78.848ZM77.1427 49.9642V51.1642H75.9427V49.9642H77.1427ZM77.1427 49.8H43.7053V47.4H77.1427V49.8ZM43.7053 79.8H80.5532V82.2H43.7053V79.8ZM43.2 50.3053V79.2947H40.8V50.3053H43.2ZM44.9053 48.6V50.3053H42.5053V48.6H44.9053ZM43.7053 51.5053H42V49.1053H43.7053V51.5053ZM42 78.0947H43.7053V80.4947H42V78.0947ZM44.9053 79.2947V81H42.5053V79.2947H44.9053ZM79.3532 81V51.3284H81.7532V81H79.3532ZM80.5532 52.5284H78.848V50.1284H80.5532V52.5284ZM77.648 51.3284V49.9642H80.048V51.3284H77.648ZM78.848 51.1642H77.1427V48.7642H78.848V51.1642ZM75.9427 49.9642V48.6H78.3427V49.9642H75.9427Z" fill="#00FFB1"/>
<path d="M61.4904 48.6V81" stroke="#00FFB1" stroke-width="4.8"/>
<path d="M59.0904 48.3V45H50.3904V43.2H47.3904V38.1H50.0904V36H56.3904V38.1H58.4904V40.2H61.4904V48.3" stroke="#00FFB1" stroke-width="2.4"/>
<path d="M63.8904 48.3V45H72.5904V43.2H75.5904V38.1H72.8904V36H66.5904V38.1H64.4904V40.2H61.4904V48.3" stroke="#00FFB1" stroke-width="2.4"/>
</g>
<defs>
<filter id="filter0_d_5238_970" x="0" y="0" width="126" height="126" filterUnits="userSpaceOnUse" color-interpolation-filters="sRGB">
<feFlood flood-opacity="0" result="BackgroundImageFix"/>
<feColorMatrix in="SourceAlpha" type="matrix" values="0 0 0 0 0 0 0 0 0 0 0 0 0 0 0 0 0 0 127 0" result="hardAlpha"/>
<feOffset dy="4"/>
<feGaussianBlur stdDeviation="2"/>
<feComposite in2="hardAlpha" operator="out"/>
<feColorMatrix type="matrix" values="0 0 0 0 0 0 0 0 0 0 0 0 0 0 0 0 0 0 0.25 0"/>
<feBlend mode="normal" in2="BackgroundImageFix" result="effect1_dropShadow_5238_970"/>
<feBlend mode="normal" in="SourceGraphic" in2="effect1_dropShadow_5238_970" result="shape"/>
</filter>
<linearGradient id="paint0_linear_5238_970" x1="103" y1="92" x2="23" y2="5.5" gradientUnits="userSpaceOnUse">
<stop offset="0.234435" stop-color="#132521"/>
<stop offset="1" stop-color="#28554C"/>
</linearGradient>
</defs>
</svg>
