<svg width="100%" height="100%" viewBox="0 0 170 82" fill="none" xmlns="http://www.w3.org/2000/svg">
<path d="M0.666667 6C0.666667 8.94552 3.05448 11.3333 6 11.3333C8.94552 11.3333 11.3333 8.94552 11.3333 6C11.3333 3.05448 8.94552 0.666667 6 0.666667C3.05448 0.666667 0.666667 3.05448 0.666667 6ZM6 76H5V77H6V76ZM158.667 76C158.667 78.9455 161.054 81.3333 164 81.3333C166.946 81.3333 169.333 78.9455 169.333 76C169.333 73.0545 166.946 70.6667 164 70.6667C161.054 70.6667 158.667 73.0545 158.667 76ZM5 6V76H7V6H5ZM6 77H164V75H6V77Z" fill="#EAFFF8"/>
</svg>
