<svg width="100%" height="100%" viewBox="0 0 164 60" fill="none" xmlns="http://www.w3.org/2000/svg">
<path d="M163.333 6C163.333 8.94552 160.946 11.3333 158 11.3333C155.054 11.3333 152.667 8.94552 152.667 6C152.667 3.05448 155.054 0.666667 158 0.666667C160.946 0.666667 163.333 3.05448 163.333 6ZM158 54H159V55H158V54ZM11.3333 54C11.3333 56.9455 8.94552 59.3333 6 59.3333C3.05448 59.3333 0.666669 56.9455 0.666669 54C0.666669 51.0545 3.05448 48.6667 6 48.6667C8.94552 48.6667 11.3333 51.0545 11.3333 54ZM159 6V54H157V6H159ZM158 55H6V53H158V55Z" fill="#EAFFF8"/>
</svg>
