<svg xmlns="http://www.w3.org/2000/svg" width="16" height="16">
<path d="M8.625 13.667c0 .345-.28.625-.625.625A6.292 6.292 0 0 1 4.066 3.089a.625.625 0 1 1 .782.976A5.042 5.042 0 0 0 8 13.042c.345 0 .625.28.625.625m2.435-.856a.625.625 0 0 1 .096-.88A5.042 5.042 0 0 0 8 2.958.625.625 0 0 1 8 1.71a6.292 6.292 0 0 1 3.94 11.198.625.625 0 0 1-.88-.095" fill="#00ffb1"></path>
<path d="M1.375 3.413c0-.345.28-.625.625-.625h2.333c.53 0 .959.43.959.958V6.08a.625.625 0 0 1-1.25 0V4.038H2a.625.625 0 0 1-.625-.625M14.625 12.586c0 .346-.28.625-.625.625h-2.333a.96.96 0 0 1-.959-.958V9.92a.625.625 0 0 1 1.25 0v2.041H14c.345 0 .625.28.625.625" fill="#00ffb1"></path>
</svg>