<svg width="163" height="173" viewBox="0 0 163 173" fill="none" xmlns="http://www.w3.org/2000/svg">
<circle cx="99.5755" cy="99.5755" r="79.2618" fill="#141515"/>
<g style="mix-blend-mode:soft-light">
<circle cx="99.5755" cy="99.5755" r="79.2618" fill="url(#paint0_linear_4540_2477)"/>
</g>
<g style="mix-blend-mode:soft-light">
<circle cx="99.5754" cy="99.5755" r="74.0068" fill="url(#paint1_linear_4540_2477)"/>
</g>
<mask id="mask0_4540_2477" style="mask-type:alpha" maskUnits="userSpaceOnUse" x="25" y="25" width="149" height="149">
<circle cx="99.5754" cy="99.5755" r="74.0068" fill="url(#paint2_linear_4540_2477)"/>
</mask>
<g mask="url(#mask0_4540_2477)">
<g filter="url(#filter0_f_4540_2477)">
<path d="M173.927 78.7148C188.297 94.4557 174.337 130.595 142.747 159.434C111.157 188.273 73.8992 198.891 59.5291 183.15C27.5775 157.078 -10.5715 72.725 106.504 118.465C138.094 89.626 143.629 45.5274 173.927 78.7148Z" fill="url(#paint3_linear_4540_2477)" fill-opacity="0.4"/>
</g>
<g filter="url(#filter1_f_4540_2477)">
<path d="M100.889 177.524C56.3886 177.524 20.3137 141.155 20.3137 96.2912C20.3137 51.4278 56.3886 15.0588 100.889 15.0588" stroke="url(#paint4_linear_4540_2477)" stroke-width="13.1373"/>
</g>
</g>
<g filter="url(#filter2_f_4540_2477)">
<path d="M100.889 177.524C58.5652 177.524 24.2549 143.213 24.2549 100.889C24.2549 58.5653 58.5652 24.2549 100.889 24.2549C110.669 24.6929 132.638 27.9772 142.272 37.6112" stroke="url(#paint5_linear_4540_2477)" stroke-width="13.1373"/>
</g>
<g filter="url(#filter3_f_4540_2477)">
<path d="M24.2549 98.6997C24.2549 57.585 57.781 24.2549 99.1375 24.2549" stroke="white" stroke-width="2.62746"/>
</g>
<g filter="url(#filter4_f_4540_2477)">
<circle cx="99.5755" cy="99.5755" r="74.6637" stroke="url(#paint6_linear_4540_2477)" stroke-width="1.31373"/>
</g>
<circle cx="99.5755" cy="99.5755" r="74.8827" stroke="url(#paint7_linear_4540_2477)" stroke-width="0.875821"/>
<circle cx="99.5755" cy="99.5755" r="80.1376" stroke="url(#paint8_linear_4540_2477)" stroke-width="0.875821"/>
<g filter="url(#filter5_f_4540_2477)">
<path d="M144.242 39.9548C153.164 46.5965 159.211 53.3244 163.948 61.9153" stroke="white" stroke-width="4.3791"/>
</g>
<g filter="url(#filter6_f_4540_2477)">
<path d="M173.582 90.3794C180.44 128.715 153.108 165.676 112.534 172.935" stroke="white" stroke-width="2.62746"/>
</g>
<g filter="url(#filter7_f_4540_2477)">
<path d="M82.4786 171.409C68.9496 167.991 58.7476 163.111 49.2158 155.464" stroke="white" stroke-opacity="0.6" stroke-width="4.3791"/>
</g>
<path d="M106.312 117.377H122.642L130.962 103.124H97.9161L96.7867 101.137L89.8086 88.8451H139.3L144.242 80.3785L139.343 71.9872H60.6834L55.7844 80.3785L95.1144 147.746H104.912L114.362 131.559L106.312 117.377Z" fill="url(#paint9_linear_4540_2477)"/>
<path d="M106.876 115.452H122.962L131.159 101.254H98.6041L97.4915 99.2734L90.6171 87.029H139.373L144.242 78.5947L139.416 70.2355H61.9244L57.0981 78.5947L95.844 145.704H105.496L114.805 129.58L106.876 115.452Z" fill="url(#paint10_linear_4540_2477)" fill-opacity="0.3"/>
<path d="M106.438 116.327H122.525L130.721 102.129H98.1661L97.0535 100.149L90.1791 87.9048H138.935L143.804 79.4705L138.978 71.1114H61.4864L56.6602 79.4705L95.406 146.58H105.058L114.367 130.455L106.438 116.327Z" fill="url(#paint11_linear_4540_2477)" stroke="url(#paint12_linear_4540_2477)" stroke-width="0.43791"/>
<g filter="url(#filter8_f_4540_2477)">
<path d="M82.9349 125.631C82.9349 125.631 58.3772 84.2994 55.7845 79.8696L61.2584 71.3303" stroke="url(#paint13_linear_4540_2477)" stroke-width="1.75164"/>
</g>
<g filter="url(#filter9_f_4540_2477)">
<path d="M98.2618 102.641C98.2618 102.641 91.6889 90.4452 90.3152 87.8524L138.987 87.8524" stroke="white" stroke-width="1.75164"/>
</g>
<g filter="url(#filter10_f_4540_2477)">
<path d="M67.1702 71.0088L139.115 70.797" stroke="url(#paint14_linear_4540_2477)" stroke-width="1.75164"/>
</g>
<g filter="url(#filter11_f_4540_2477)">
<path d="M106.182 116.165L124.331 115.861" stroke="url(#paint15_linear_4540_2477)" stroke-width="1.75164"/>
</g>
<defs>
<filter id="filter0_f_4540_2477" x="9.56537" y="49.3514" width="187.533" height="158.598" filterUnits="userSpaceOnUse" color-interpolation-filters="sRGB">
<feFlood flood-opacity="0" result="BackgroundImageFix"/>
<feBlend mode="normal" in="SourceGraphic" in2="BackgroundImageFix" result="shape"/>
<feGaussianBlur stdDeviation="8.75821" result="effect1_foregroundBlur_4540_2477"/>
</filter>
<filter id="filter1_f_4540_2477" x="-3.7713" y="-9.02624" width="122.177" height="210.635" filterUnits="userSpaceOnUse" color-interpolation-filters="sRGB">
<feFlood flood-opacity="0" result="BackgroundImageFix"/>
<feBlend mode="normal" in="SourceGraphic" in2="BackgroundImageFix" result="shape"/>
<feGaussianBlur stdDeviation="8.75821" result="effect1_foregroundBlur_4540_2477"/>
</filter>
<filter id="filter2_f_4540_2477" x="0.169867" y="0.169867" width="164.263" height="201.439" filterUnits="userSpaceOnUse" color-interpolation-filters="sRGB">
<feFlood flood-opacity="0" result="BackgroundImageFix"/>
<feBlend mode="normal" in="SourceGraphic" in2="BackgroundImageFix" result="shape"/>
<feGaussianBlur stdDeviation="8.75821" result="effect1_foregroundBlur_4540_2477"/>
</filter>
<filter id="filter3_f_4540_2477" x="19.8758" y="19.8759" width="82.327" height="81.8892" filterUnits="userSpaceOnUse" color-interpolation-filters="sRGB">
<feFlood flood-opacity="0" result="BackgroundImageFix"/>
<feBlend mode="normal" in="SourceGraphic" in2="BackgroundImageFix" result="shape"/>
<feGaussianBlur stdDeviation="1.53269" result="effect1_foregroundBlur_4540_2477"/>
</filter>
<filter id="filter4_f_4540_2477" x="23.3791" y="23.3791" width="152.393" height="152.393" filterUnits="userSpaceOnUse" color-interpolation-filters="sRGB">
<feFlood flood-opacity="0" result="BackgroundImageFix"/>
<feBlend mode="normal" in="SourceGraphic" in2="BackgroundImageFix" result="shape"/>
<feGaussianBlur stdDeviation="0.43791" result="effect1_foregroundBlur_4540_2477"/>
</filter>
<filter id="filter5_f_4540_2477" x="138.556" y="33.8194" width="31.6891" height="33.5323" filterUnits="userSpaceOnUse" color-interpolation-filters="sRGB">
<feFlood flood-opacity="0" result="BackgroundImageFix"/>
<feBlend mode="normal" in="SourceGraphic" in2="BackgroundImageFix" result="shape"/>
<feGaussianBlur stdDeviation="2.18955" result="effect1_foregroundBlur_4540_2477"/>
</filter>
<filter id="filter6_f_4540_2477" x="107.923" y="85.769" width="72.4069" height="92.8379" filterUnits="userSpaceOnUse" color-interpolation-filters="sRGB">
<feFlood flood-opacity="0" result="BackgroundImageFix"/>
<feBlend mode="normal" in="SourceGraphic" in2="BackgroundImageFix" result="shape"/>
<feGaussianBlur stdDeviation="2.18955" result="effect1_foregroundBlur_4540_2477"/>
</filter>
<filter id="filter7_f_4540_2477" x="45.2182" y="151.129" width="40.4241" height="25.0298" filterUnits="userSpaceOnUse" color-interpolation-filters="sRGB">
<feFlood flood-opacity="0" result="BackgroundImageFix"/>
<feBlend mode="normal" in="SourceGraphic" in2="BackgroundImageFix" result="shape"/>
<feGaussianBlur stdDeviation="1.31373" result="effect1_foregroundBlur_4540_2477"/>
</filter>
<filter id="filter8_f_4540_2477" x="53.0059" y="69.106" width="32.4332" height="58.7237" filterUnits="userSpaceOnUse" color-interpolation-filters="sRGB">
<feFlood flood-opacity="0" result="BackgroundImageFix"/>
<feBlend mode="normal" in="SourceGraphic" in2="BackgroundImageFix" result="shape"/>
<feGaussianBlur stdDeviation="0.875821" result="effect1_foregroundBlur_4540_2477"/>
</filter>
<filter id="filter9_f_4540_2477" x="87.1085" y="85.2249" width="53.6307" height="19.583" filterUnits="userSpaceOnUse" color-interpolation-filters="sRGB">
<feFlood flood-opacity="0" result="BackgroundImageFix"/>
<feBlend mode="normal" in="SourceGraphic" in2="BackgroundImageFix" result="shape"/>
<feGaussianBlur stdDeviation="0.875821" result="effect1_foregroundBlur_4540_2477"/>
</filter>
<filter id="filter10_f_4540_2477" x="65.4161" y="68.1696" width="75.4535" height="5.46669" filterUnits="userSpaceOnUse" color-interpolation-filters="sRGB">
<feFlood flood-opacity="0" result="BackgroundImageFix"/>
<feBlend mode="normal" in="SourceGraphic" in2="BackgroundImageFix" result="shape"/>
<feGaussianBlur stdDeviation="0.875821" result="effect1_foregroundBlur_4540_2477"/>
</filter>
<filter id="filter11_f_4540_2477" x="104.416" y="113.233" width="21.6817" height="5.55889" filterUnits="userSpaceOnUse" color-interpolation-filters="sRGB">
<feFlood flood-opacity="0" result="BackgroundImageFix"/>
<feBlend mode="normal" in="SourceGraphic" in2="BackgroundImageFix" result="shape"/>
<feGaussianBlur stdDeviation="0.875821" result="effect1_foregroundBlur_4540_2477"/>
</filter>
<linearGradient id="paint0_linear_4540_2477" x1="178.837" y1="178.837" x2="64.3237" y2="32.1373" gradientUnits="userSpaceOnUse">
<stop stop-color="#DDFFEE"/>
<stop offset="1" stop-color="#69E9EE"/>
</linearGradient>
<linearGradient id="paint1_linear_4540_2477" x1="218.249" y1="-24.1341" x2="25.5686" y2="173.582" gradientUnits="userSpaceOnUse">
<stop stop-color="#060C0B"/>
<stop offset="0.587964" stop-color="#69E9EE"/>
</linearGradient>
<linearGradient id="paint2_linear_4540_2477" x1="199.419" y1="-24.572" x2="25.5688" y2="173.583" gradientUnits="userSpaceOnUse">
<stop stop-color="#0F1110"/>
<stop offset="1" stop-color="#69E9EE"/>
</linearGradient>
<linearGradient id="paint3_linear_4540_2477" x1="128.919" y1="168.277" x2="104.618" y2="110.289" gradientUnits="userSpaceOnUse">
<stop stop-color="#CAFFEF"/>
<stop offset="0.285" stop-color="#B1FFE7"/>
<stop offset="1" stop-color="#E4FFF7" stop-opacity="0"/>
</linearGradient>
<linearGradient id="paint4_linear_4540_2477" x1="44.4395" y1="38.6729" x2="206.757" y2="246.618" gradientUnits="userSpaceOnUse">
<stop stop-color="#00FFB1"/>
<stop offset="0.5" stop-color="white"/>
<stop offset="1" stop-color="#6862D3"/>
</linearGradient>
<linearGradient id="paint5_linear_4540_2477" x1="47.2006" y1="46.5324" x2="134.608" y2="74.6146" gradientUnits="userSpaceOnUse">
<stop stop-color="#00FFB1"/>
<stop offset="0.5" stop-color="white"/>
<stop offset="1" stop-color="#6862D3" stop-opacity="0"/>
</linearGradient>
<linearGradient id="paint6_linear_4540_2477" x1="46.8073" y1="46.1505" x2="142.929" y2="160.883" gradientUnits="userSpaceOnUse">
<stop stop-color="#00FFB1"/>
<stop offset="0.5" stop-color="#CDCBF8"/>
<stop offset="1" stop-color="#6862D3"/>
</linearGradient>
<linearGradient id="paint7_linear_4540_2477" x1="38.268" y1="70.8924" x2="142.929" y2="160.883" gradientUnits="userSpaceOnUse">
<stop stop-color="white"/>
<stop offset="0.195339" stop-color="#00FFB1"/>
<stop offset="0.5" stop-color="#CDCBF8"/>
<stop offset="1" stop-color="#6862D3"/>
</linearGradient>
<linearGradient id="paint8_linear_4540_2477" x1="19" y1="99.5755" x2="180.151" y2="155.19" gradientUnits="userSpaceOnUse">
<stop offset="0.253369" stop-color="#00FFB1"/>
<stop offset="0.741554" stop-color="white"/>
<stop offset="1" stop-color="#6862D3"/>
</linearGradient>
<linearGradient id="paint9_linear_4540_2477" x1="144.242" y1="147.746" x2="55.7844" y2="147.746" gradientUnits="userSpaceOnUse">
<stop stop-color="#6862D3"/>
<stop offset="0.56" stop-color="#69E9EE"/>
<stop offset="1" stop-color="#74FAB7"/>
</linearGradient>
<linearGradient id="paint10_linear_4540_2477" x1="57.0981" y1="145.704" x2="157.877" y2="100.918" gradientUnits="userSpaceOnUse">
<stop stop-color="#28A57F"/>
<stop offset="1" stop-color="#053C2B"/>
</linearGradient>
<linearGradient id="paint11_linear_4540_2477" x1="130.667" y1="115.559" x2="32.3561" y2="47.4642" gradientUnits="userSpaceOnUse">
<stop offset="0.210446"/>
<stop offset="1" stop-color="#666666"/>
</linearGradient>
<linearGradient id="paint12_linear_4540_2477" x1="62.5719" y1="71.1114" x2="133.951" y2="84.2487" gradientUnits="userSpaceOnUse">
<stop stop-color="white" stop-opacity="0.2"/>
<stop offset="0.465" stop-color="white"/>
<stop offset="1" stop-color="white" stop-opacity="0"/>
</linearGradient>
<linearGradient id="paint13_linear_4540_2477" x1="60.8205" y1="70.2355" x2="82.9349" y2="124.099" gradientUnits="userSpaceOnUse">
<stop stop-color="white" stop-opacity="0"/>
<stop offset="0.16993" stop-color="white"/>
<stop offset="1" stop-color="white" stop-opacity="0"/>
</linearGradient>
<linearGradient id="paint14_linear_4540_2477" x1="67.1701" y1="70.6736" x2="139.031" y2="70.647" gradientUnits="userSpaceOnUse">
<stop stop-color="white" stop-opacity="0"/>
<stop offset="0.566653" stop-color="white"/>
<stop offset="1" stop-color="white" stop-opacity="0"/>
</linearGradient>
<linearGradient id="paint15_linear_4540_2477" x1="106.182" y1="115.83" x2="125.037" y2="116.034" gradientUnits="userSpaceOnUse">
<stop stop-color="white"/>
<stop offset="1" stop-color="white" stop-opacity="0"/>
</linearGradient>
</defs>
</svg>
